<svg xmlns="http://www.w3.org/2000/svg" width="40" height="30" viewBox="0 0 40 30">
    <path fill="#AFB8BE" fill-rule="evenodd" d="M34.395 10.343l-1.15 1.216-4.16 4.403-9.39-1.415 7.742-6.358 8.828.437-1.87 1.717zm.845 2.555l-1.296 1.179-5.586 5.081-9.51-2.451v-.825l.118.03a.717.717 0 0 0 .08.016l10.209 1.538a.78.78 0 0 0 .684-.231l4.96-5.249 1.048.27-.707.642zm0 2.337l-1.296 1.179-5.586 5.081-9.51-2.451v-.825l9.526 2.456a.782.782 0 0 0 .723-.175l6.573-5.978.277.071-.707.642zm0 2.337l-1.296 1.179-5.586 5.081-9.51-2.451v-.825l9.526 2.456a.782.782 0 0 0 .723-.175l6.573-5.978.277.071-.707.642zm-6.882 8.597l-9.51-2.451v-.825l9.526 2.456a.782.782 0 0 0 .723-.175l6.573-5.978.277.071-7.59 6.902zm-11.035-9.855v6.949l-3.355-.803v-7.834l3.355.863v.825zm-4.88-1.258l-6.862-1.77-1.726-.444-.277-.071L4.9 11.568l6.678 2.44c.025.009.05.016.075.023l.79.203v.822zm0 2.337l-6.862-1.77-1.726-.444-.277-.071.707-.643 8.158 2.103v.825zm0 2.337l-6.862-1.77-1.726-.444-.277-.071.707-.643 8.158 2.103v.825zm0 2.337l-8.865-2.285.707-.643 8.158 2.104v.824zm-.048-18.51l7.758 2.94-7.61 6.092a.742.742 0 0 0-.116.128l-.341-.087-5.96-2.177-1.58-.577-1.192-.436 9.04-5.883zM18.34 13.75l-3.725-.964 7.216-5.76 3.676.862-7.167 5.862zm20.271-6.053a.763.763 0 0 0-.665-.45l-10.942-.542-6.258-1.554-8.18-3.1a.79.79 0 0 0-.727.087L1.316 9.048a.719.719 0 0 0-.31.688.738.738 0 0 0 .485.587l1.829.668-1.777 1.617a.71.71 0 0 0-.215.709.748.748 0 0 0 .541.526l.69.177-1.016.925a.71.71 0 0 0-.215.709.748.748 0 0 0 .541.526l.69.177-1.016.925a.71.71 0 0 0-.215.709.748.748 0 0 0 .541.526l.69.178-1.016.924a.71.71 0 0 0-.215.709.748.748 0 0 0 .542.526l11.021 2.84a.797.797 0 0 0 .13.045l.565.135 14.788 3.812a.787.787 0 0 0 .723-.175l8.886-8.081a.711.711 0 0 0 .214-.709.748.748 0 0 0-.541-.526l-.69-.178 1.017-.924a.711.711 0 0 0 .214-.709.748.748 0 0 0-.541-.526l-.69-.178 1.017-.924a.711.711 0 0 0 .214-.709.748.748 0 0 0-.541-.526l-.69-.178 1.017-.924a.711.711 0 0 0 .214-.71.748.748 0 0 0-.541-.525l-1.607-.414 2.424-2.304a.707.707 0 0 0 .14-.769z"/>
</svg>
